<svg width="295" height="337" viewBox="0 0 295 337" fill="none" xmlns="http://www.w3.org/2000/svg">
<path d="M37.6126 30.4225C5.99007 64.5491 5.72765 65.1108 1.79123 89.4067C-6.08161 137.577 12.1571 193.05 53.3583 245.715C66.4797 262.427 93.5097 290.796 110.699 305.542C129.069 321.411 148.882 337 150.719 337C155.311 337 184.441 310.878 207.797 285.88C237.32 254.141 257.396 225.211 272.486 192.629C281.277 173.81 284.557 164.822 289.15 146.003C292.692 131.819 296.104 103.029 294.661 99.2374C293.086 94.603 259.758 96.7095 237.976 102.608C187.59 116.371 156.886 154.43 149.013 212.712L147.307 225.07L143.633 214.959C135.236 191.927 113.585 165.103 88.3924 146.706C69.76 132.943 57.9508 119.882 51.6525 106.119C47.06 96.2882 46.5352 93.9008 46.404 84.3509C46.404 75.5033 46.7976 73.818 48.3722 74.2393C54.9329 76.3459 64.1178 75.9246 68.9727 73.2563C76.9768 68.7622 87.0803 58.3698 94.297 46.7134C102.039 34.3548 103.22 30.5629 100.727 25.6476C97.4462 18.9065 87.4739 8.23318 80.6508 4.02005C68.5791 -3.28278 69.4976 -3.84451 37.6126 30.4225Z" fill="white"/>
</svg>
